<svg xmlns="http://www.w3.org/2000/svg" xmlns:xlink="http://www.w3.org/1999/xlink" version="1.2" baseProfile="tiny" x="0px" y="0px" viewBox="0 0 100 125" xml:space="preserve"><path d="M60,70c4.136,0,7.5-3.364,7.5-7.5v-5c0-4.136-3.364-7.5-7.5-7.5s-7.5,3.364-7.5,7.5v5C52.5,66.636,55.864,70,60,70z   M57.5,57.5c0-1.378,1.122-2.5,2.5-2.5s2.5,1.122,2.5,2.5v5c0,1.378-1.122,2.5-2.5,2.5s-2.5-1.122-2.5-2.5V57.5z"/><polygon points="50,65 42.5,65 42.5,50 37.5,50 37.5,70 50,70 "/><path d="M77.5,70H85V57.5h-7.5v5H80V65h-2.5c-1.378,0-2.5-1.122-2.5-2.5v-5c0-1.378,1.122-2.5,2.5-2.5H85v-5h-7.5  c-4.136,0-7.5,3.364-7.5,7.5v5C70,66.636,73.364,70,77.5,70z"/><path d="M77.5,30l-25-25h-35c-5.523,0-10,4.477-10,10v70c0,5.523,4.477,10,10,10h50c5.523,0,10-4.477,10-10v-5H95V40H77.5V30z   M50,13.107L69.393,32.5H50V13.107z M90,45v30H32.5V45H90z"/></svg>